<svg xmlns="http://www.w3.org/2000/svg" viewBox="0 0 72 72" width="64px" height="64px">
  <!-- Create a black circle to act as the background -->
  <circle cx="36" cy="36" r="30" fill="black" />

  <!-- Draw the plus sign in white -->
  <path d="M44,39c1.657,0,3-1.343,3-3c0-1.657-1.343-3-3-3c-0.329,0-2.426,0-5,0c0-2.574,0-4.672,0-5c0-1.657-1.343-3-3-3c-1.657,0-3,1.343-3,3c0,0.328,0,2.426,0,5c-2.574,0-4.671,0-5,0c-1.657,0-3,1.343-3,3c0,1.657,1.343,3,3,3c0.329,0,2.426,0,5,0c0,2.574,0,4.672,0,5c0,1.657,1.343,3,3,3c1.657,0,3-1.343,3-3c0-0.328,0-2.426,0-5C41.574,39,43.671,39,44,39z" fill="white"/>
</svg>
