<svg xmlns="http://www.w3.org/2000/svg" version="1.1" xmlns:xlink="http://www.w3.org/1999/xlink" xmlns:svgjs="http://svgjs.dev/svgjs" width="128" height="128" viewBox="0 0 128 128"><g transform="matrix(0.8046875,0,0,0.8046875,12.766591872973592,30.305448307671767)"><svg viewBox="0 0 95 63" data-background-color="#1de538" preserveAspectRatio="xMidYMid meet" height="84" width="128" xmlns="http://www.w3.org/2000/svg" xmlns:xlink="http://www.w3.org/1999/xlink"><g id="tight-bounds" transform="matrix(1,0,0,1,-0.24588570808244015,0.19127181507958824)"><svg viewBox="0 0 95.481 62.72746592012439" height="62.72746592012439" width="95.481"><g><svg viewBox="0 0 95.481 62.72746592012439" height="62.72746592012439" width="95.481"><g><svg viewBox="0 0 95.481 62.72746592012439" height="62.72746592012439" width="95.481"><g id="textblocktransform"><svg viewBox="0 0 95.481 62.72746592012439" height="62.72746592012439" width="95.481" id="textblock"><g><svg viewBox="0 0 95.481 62.72746592012439" height="62.72746592012439" width="95.481"><g><svg viewBox="0 0 95.481 62.72746592012439" height="62.72746592012439" width="95.481"><g><svg xmlns="http://www.w3.org/2000/svg" xmlns:xlink="http://www.w3.org/1999/xlink" version="1.1" x="0" y="0" viewBox="4.94 20.3979920550736 90.11901653314114 59.20484220250874" enable-background="new 0 0 100 100" xml:space="preserve" height="62.72746592012439" width="95.481" class="icon-icon-0" data-fill-palette-color="accent" id="icon-0"><path fill="#ffffff" d="M10.563 33.755C6.656 33.755 4.94 42.954 4.94 50.011S6.771 66.054 10.135 66.054H26.934C32.122 66.054 40.182 74.903 44.259 78.3 47.19 80.742 52.304 79.869 52.304 74.678L52.314 25.111C52.314 20.106 47.155 19.278 44.262 21.827 40.028 25.557 32.236 33.754 27.15 33.754z" data-fill-palette-color="accent"></path><path fill="#ffffff" d="M69.776 31.396A3.895 3.895 0 0 0 64.271 31.406 3.886 3.886 0 0 0 64.279 36.91V36.902C67.637 40.261 69.71 44.873 69.71 49.99 69.71 55.097 67.644 59.698 64.287 63.05A3.895 3.895 0 0 0 64.279 68.573 3.87 3.87 0 0 0 67.028 69.712C68.031 69.712 69.057 69.328 69.786 68.573 74.532 63.822 77.483 57.233 77.483 50.003A26.25 26.25 0 0 0 69.776 31.396" data-fill-palette-color="accent"></path><path fill="#ffffff" d="M83.25 21.576A4.01 4.01 0 0 0 77.572 21.576 4 4 0 0 0 77.572 27.255C83.399 33.08 87.028 41.098 87.028 49.989 87.028 58.879 83.431 66.883 77.579 72.719A3.977 3.977 0 0 0 77.579 78.395 4 4 0 0 0 80.426 79.575C81.455 79.575 82.517 79.17 83.266 78.395 90.542 71.124 95.069 61.069 95.059 49.989A40.24 40.24 0 0 0 83.25 21.576" data-fill-palette-color="accent"></path></svg></g></svg></g></svg></g></svg></g></svg></g></svg></g><defs></defs></svg><rect width="95.481" height="62.72746592012439" fill="none" stroke="none" visibility="hidden"></rect></g></svg></g></svg>