<svg xmlns="http://www.w3.org/2000/svg" version="1.1" xmlns:xlink="http://www.w3.org/1999/xlink" xmlns:svgjs="http://svgjs.dev/svgjs" width="128" height="128" viewBox="0 0 128 128"><g transform="matrix(0.8046875,0,0,0.8046875,12.25760941263097,25.371126399431475)"><svg viewBox="0 0 96 71" data-background-color="#1de538" preserveAspectRatio="xMidYMid meet" height="94" width="128" xmlns="http://www.w3.org/2000/svg" xmlns:xlink="http://www.w3.org/1999/xlink"><g id="tight-bounds" transform="matrix(1,0,0,1,0.2936131487929856,0.7589551003890449)"><svg viewBox="0 0 95.481 70.18819581592928" height="70.18819581592928" width="95.481"><g><svg viewBox="0 0 95.481 70.18819581592928" height="70.18819581592928" width="95.481"><g><svg viewBox="0 0 95.481 70.18819581592928" height="70.18819581592928" width="95.481"><g id="textblocktransform"><svg viewBox="0 0 95.481 70.18819581592928" height="70.18819581592928" width="95.481" id="textblock"><g><svg viewBox="0 0 95.481 70.18819581592928" height="70.18819581592928" width="95.481"><g><svg viewBox="0 0 95.481 70.18819581592928" height="70.18819581592928" width="95.481"><g><svg xmlns="http://www.w3.org/2000/svg" xmlns:xlink="http://www.w3.org/1999/xlink" xmlns:a="http://ns.adobe.com/AdobeSVGViewerExtensions/3.0/" version="1.1" x="0" y="0" viewBox="0 -0.0002816523912992433 84.01059039999998 61.75628417807761" enable-background="new -6.46 -19 100 100" xml:space="preserve" height="70.18819581592928" width="95.481" class="icon-icon-0" data-fill-palette-color="accent" id="icon-0"><rect x="63.559" y="12.746" transform="matrix(0.7071 -0.7072 0.7072 0.7071 -2.0081 57.1505)" stroke="#ffffff" stroke-miterlimit="10" width="8.833" height="36.505" fill="#ffffff" data-fill-palette-color="accent"></rect><rect x="63.559" y="12.747" transform="matrix(-0.7072 -0.707 0.707 -0.7072 94.1314 100.9819)" stroke="#ffffff" stroke-miterlimit="10" width="8.832" height="36.506" fill="#ffffff" data-fill-palette-color="accent"></rect><path d="M44.017 2.121L24.304 16.964H6.36A4.24 4.24 0 0 0 2.118 21.204V39.932C2.118 42.272 4.018 44.172 6.36 44.172H23.479L44.017 59.636z" fill="#ffffff" data-fill-palette-color="accent"></path><path d="M44.017 61.756C43.566 61.756 43.116 61.613 42.741 61.332L22.769 46.292H6.36A6.367 6.367 0 0 1 0 39.932V21.205A6.37 6.37 0 0 1 6.36 14.843H23.598L42.741 0.428A2.118 2.118 0 0 1 46.136 2.12V59.636C46.136 60.441 45.683 61.176 44.962 61.533A2.1 2.1 0 0 1 44.017 61.756M6.36 19.083C5.192 19.083 4.24 20.035 4.24 21.205V39.933C4.24 41.103 5.192 42.053 6.36 42.053H23.479C23.939 42.053 24.387 42.204 24.753 42.482L41.897 55.387V6.373L25.582 18.657A2.12 2.12 0 0 1 24.304 19.083z" fill="#ffffff" data-fill-palette-color="accent"></path></svg></g></svg></g></svg></g></svg></g></svg></g></svg></g><defs></defs></svg><rect width="95.481" height="70.18819581592928" fill="none" stroke="none" visibility="hidden"></rect></g></svg></g></svg>